<svg width="177" height="49" viewBox="0 0 177 49" fill="none" xmlns="http://www.w3.org/2000/svg">
<path d="M26.2466 48H13.1581V15.9749H0.696197V7.13324H2.43669C7.51893 7.13324 11.4873 6.08894 14.0632 1.3548H26.2466V48ZM53.9014 48.6962C38.0281 48.6962 29.7434 39.0191 29.7434 24.6774C29.7434 10.4054 38.0281 0.658605 53.9014 0.658605C69.7051 0.658605 77.9898 10.4054 77.9898 24.6774C77.9898 39.0191 69.7051 48.6962 53.9014 48.6962ZM53.9014 35.9558C61.8381 35.9558 63.9267 33.3102 63.9267 24.6774C63.9267 16.0446 61.8381 13.399 53.9014 13.399C45.8952 13.399 43.8066 16.0446 43.8066 24.6774C43.8066 33.3102 45.8952 35.9558 53.9014 35.9558ZM104.96 48.6962C89.0871 48.6962 80.8024 39.0191 80.8024 24.6774C80.8024 10.4054 89.0871 0.658605 104.96 0.658605C120.764 0.658605 129.049 10.4054 129.049 24.6774C129.049 39.0191 120.764 48.6962 104.96 48.6962ZM104.96 35.9558C112.897 35.9558 114.986 33.3102 114.986 24.6774C114.986 16.0446 112.897 13.399 104.96 13.399C96.9541 13.399 94.8655 16.0446 94.8655 24.6774C94.8655 33.3102 96.9541 35.9558 104.96 35.9558Z" fill="white"/>
<path d="M145.576 48H129.773L142.861 31.0128V30.3166L129.773 12.9117H145.785L152.956 23.4939H153.652L160.545 12.9117H176.348L163.26 30.1077V30.8039L176.348 48H160.336L153.165 37.6963H152.469L145.576 48Z" fill="#EF5A3C"/>
</svg>
