<svg width="507" height="61" viewBox="0 0 507 61" fill="none" xmlns="http://www.w3.org/2000/svg">
<path d="M26.2466 48H13.1581V15.9749H0.696197V7.13324H2.43669C7.51893 7.13324 11.4873 6.08894 14.0632 1.3548H26.2466V48ZM53.9014 48.6962C38.0281 48.6962 29.7434 39.0191 29.7434 24.6774C29.7434 10.4054 38.0281 0.658605 53.9014 0.658605C69.7051 0.658605 77.9898 10.4054 77.9898 24.6774C77.9898 39.0191 69.7051 48.6962 53.9014 48.6962ZM53.9014 35.9558C61.8381 35.9558 63.9267 33.3102 63.9267 24.6774C63.9267 16.0446 61.8381 13.399 53.9014 13.399C45.8952 13.399 43.8066 16.0446 43.8066 24.6774C43.8066 33.3102 45.8952 35.9558 53.9014 35.9558ZM104.96 48.6962C89.0871 48.6962 80.8024 39.0191 80.8024 24.6774C80.8024 10.4054 89.0871 0.658605 104.96 0.658605C120.764 0.658605 129.049 10.4054 129.049 24.6774C129.049 39.0191 120.764 48.6962 104.96 48.6962ZM104.96 35.9558C112.897 35.9558 114.986 33.3102 114.986 24.6774C114.986 16.0446 112.897 13.399 104.96 13.399C96.9541 13.399 94.8655 16.0446 94.8655 24.6774C94.8655 33.3102 96.9541 35.9558 104.96 35.9558ZM215.295 48H179.858V1.3548H215.295V5.88008H184.801V22.3103H214.25V26.766H184.801V43.4747H215.295V48ZM227.158 48H222.215V13.6079H226.67V24.3989H227.018C228.202 18.5509 233.075 12.9117 241.639 12.9117C251.316 12.9117 256.119 19.804 256.119 27.9495V48H251.176V28.6457C251.176 21.5445 247.765 17.437 239.898 17.437C231.544 17.437 227.158 22.5192 227.158 31.3609V48ZM278.923 45.2152C268.689 45.2152 262.423 38.4621 262.423 29.0634C262.423 19.6648 268.897 12.9117 279.48 12.9117C286.72 12.9117 292.429 16.323 293.821 22.4496H294.169V13.6079H298.625V44.7279C298.625 56.0759 291.454 60.5315 281.081 60.5315C271.752 60.5315 264.651 55.867 264.651 47.8608H269.594C269.594 53.9177 273.632 56.2847 281.29 56.2847C290.201 56.2847 293.682 53.5696 293.682 45.0064V36.0254H293.334C291.941 41.3165 286.859 45.2152 278.923 45.2152ZM267.366 29.0634C267.366 37.8355 272.796 40.8292 280.245 40.8292C288.739 40.8292 293.682 36.5824 293.682 29.2723V28.0888C293.682 21.3357 288.53 17.2977 280.593 17.2977C272.866 17.2977 267.366 20.2914 267.366 29.0634ZM311.939 9.22183H306.996V1.3548H311.939V9.22183ZM311.939 48H306.996V13.6079H311.939V48ZM325.196 48H320.253V13.6079H324.709V24.3989H325.057C326.241 18.5509 331.114 12.9117 339.677 12.9117C349.354 12.9117 354.158 19.804 354.158 27.9495V48H349.215V28.6457C349.215 21.5445 345.804 17.437 337.937 17.437C329.582 17.437 325.196 22.5192 325.196 31.3609V48ZM378.563 48.6962C367.493 48.6962 360.461 41.7342 360.461 30.8039C360.461 20.361 367.423 12.9117 378.493 12.9117C388.588 12.9117 395.759 18.7597 395.759 28.9938C395.759 30.247 395.619 31.2913 395.41 32.1963H365.126C365.404 39.9241 369.373 44.5886 378.493 44.5886C386.569 44.5886 390.328 41.595 390.328 36.5824V36.095H395.271V36.5824C395.271 43.7532 388.17 48.6962 378.563 48.6962ZM378.423 17.0192C369.512 17.0192 365.474 21.6141 365.126 29.1331H391.094C391.094 28.785 391.094 28.4369 391.094 28.0888C391.094 20.8483 386.499 17.0192 378.423 17.0192ZM418.675 48.6962C407.606 48.6962 400.574 41.7342 400.574 30.8039C400.574 20.361 407.536 12.9117 418.606 12.9117C428.701 12.9117 435.872 18.7597 435.872 28.9938C435.872 30.247 435.732 31.2913 435.523 32.1963H405.239C405.517 39.9241 409.486 44.5886 418.606 44.5886C426.682 44.5886 430.441 41.595 430.441 36.5824V36.095H435.384V36.5824C435.384 43.7532 428.283 48.6962 418.675 48.6962ZM418.536 17.0192C409.625 17.0192 405.587 21.6141 405.239 29.1331H431.207C431.207 28.785 431.207 28.4369 431.207 28.0888C431.207 20.8483 426.612 17.0192 418.536 17.0192ZM447.371 48H442.428V13.6079H446.883V23.0065H447.231C448.276 17.5066 452.174 12.9117 459.345 12.9117C467.282 12.9117 470.763 18.7597 470.763 25.1647V28.5761H465.82V25.9306C465.82 20.0825 463.383 17.2281 457.396 17.2281C450.434 17.2281 447.371 21.6141 447.371 29.3419V48ZM491.597 48.6962C481.015 48.6962 474.888 44.4494 474.888 36.5127V36.3735H479.831V36.7912C479.831 42.5697 483.243 44.5886 491.667 44.5886C499.395 44.5886 502.04 42.7785 502.04 38.8102C502.04 35.19 499.882 34.0064 494.173 33.1014L484.983 31.7786C478.718 30.9432 474.749 28.5065 474.749 22.7977C474.749 16.7408 480.528 12.9117 489.996 12.9117C499.882 12.9117 506.287 17.0889 506.287 25.1647V25.304H501.344V24.9559C501.344 19.804 498.629 17.0192 489.857 17.0192C482.616 17.0192 479.623 18.7597 479.623 22.8673C479.623 26.4179 481.433 27.671 487.142 28.5065L495.566 29.69C502.945 30.7343 506.914 33.2406 506.914 38.8102C506.914 45.2848 500.509 48.6962 491.597 48.6962Z" fill="white"/>
<path d="M145.576 48H129.773L142.861 31.0128V30.3166L129.773 12.9117H145.785L152.956 23.4939H153.652L160.545 12.9117H176.348L163.26 30.1077V30.8039L176.348 48H160.336L153.165 37.6963H152.469L145.576 48Z" fill="#EF5A3C"/>
</svg>
